<svg width="1507" height="335" viewBox="0 0 1507 335" fill="none" xmlns="http://www.w3.org/2000/svg">
<path fill-rule="evenodd" clip-rule="evenodd" d="M329.47 158.018L328.554 141.154H152.726V203.76H260.329C255.979 217.853 248.882 229.866 238.808 240.955C219.806 261.054 196.225 270.294 165.318 270.294C134.411 270.294 110.372 260.823 91.8276 240.955C73.7411 221.318 65.0413 197.523 65.0413 166.797C65.0413 136.533 73.9701 112.276 91.8276 93.1014C110.372 73.0026 134.411 63.2997 165.318 63.2997C196.225 63.2997 219.806 73.2336 238.808 93.1014C242.701 97.4908 246.821 102.342 249.798 107.656L254.605 114.817H323.975L313.902 92.6394C306.346 76.6989 296.273 61.6826 283.91 48.7454C253.232 16.4025 213.167 0 165.318 0C117.469 0 77.4042 16.4025 46.7259 48.7454C16.2766 80.3952 0.9375 120.131 0.9375 166.797C0.9375 213.925 16.2766 253.661 46.497 284.849C77.6331 317.654 117.698 334.056 165.547 334.056C213.396 334.056 253.461 317.654 284.139 284.849C309.094 259.205 323.746 226.631 328.096 189.899C329.012 180.889 329.47 173.959 329.47 166.797V158.018ZM698.659 326.894L561.064 0H499.25L361.427 326.894H431.712L467.427 241.186H592.658L628.373 326.894H698.659ZM529.928 90.5602L566.788 179.272H493.526L529.928 90.5602ZM953.287 0H1016.93V184.124C1016.93 227.094 1004.11 263.133 977.784 289.7C952.143 316.961 918.259 330.591 876.821 330.591C836.298 330.591 802.185 316.73 776.086 289.7C750.216 263.133 736.937 227.094 736.937 184.124V0H801.041V185.048C801.041 212.539 808.596 233.331 824.393 248.116C837.672 261.054 854.842 266.829 876.821 266.829C898.799 266.829 916.428 261.054 929.935 248.116C945.274 233.562 953.287 213.001 953.287 185.048V0ZM1356.77 0H1217.8C1198.57 0 1179.57 3.46532 1161.48 11.089C1143.17 18.7127 1127.14 29.8017 1113.18 43.894C1082.73 75.0818 1067.39 115.51 1067.39 163.332C1067.39 211.615 1082.73 251.582 1113.18 283C1126.68 297.093 1142.94 308.182 1161.48 315.805C1179.57 323.429 1198.57 326.894 1217.8 326.894H1356.77V0ZM1292.67 263.826H1219.18C1192.85 263.826 1172.24 254.585 1155.76 234.948C1139.5 216.004 1131.49 192.44 1131.49 163.101C1131.49 134.223 1139.5 110.89 1155.76 91.7153C1172.24 72.0785 1192.85 62.3756 1219.18 62.3756H1292.67V263.826ZM1442.9 90.1226H1507V326.895H1442.9V90.1226ZM1507 64.6858V0H1442.9V64.6858H1507Z" fill="#1E1E1E"/>
</svg>
